Coordinates
version=1
nRows=19
nColumns=32
inDegrees=no

Units are S.I. units (second, meters, Newtons, ...)
If the header above contains a line with 'inDegrees', this indicates whether rotational values are in degrees (yes) or radians (no).

endheader
time	pelvis_tilt	pelvis_list	pelvis_rotation	pelvis_tx	pelvis_ty	pelvis_tz	hip_flexion_r	hip_adduction_r	hip_rotation_r	knee_angle_r	ankle_angle_r	subtalar_angle_r	mtp_angle_r	hip_flexion_l	hip_adduction_l	hip_rotation_l	knee_angle_l	ankle_angle_l	subtalar_angle_l	mtp_angle_l	lumbar_extension	lumbar_bending	lumbar_rotation	arm_flex_r	arm_add_r	arm_rot_r	elbow_flex_r	arm_flex_l	arm_add_l	arm_rot_l	elbow_flex_l
1.195	-0.0305132	0.138397	0.184236	0.882136	1.01005	-0.308363	0.250221	-0.215464	-0.0710976	2.34954	-0.262155	-0.435389	0.0891416	0.379743	0.0929484	-0.474604	0.540693	0.0822615	0.18359	0.0888453	-0.371597	-0.186253	-0.133412	-0.620337	-0.218024	0.177755	1.52819	-0.526224	-0.305338	0.0230657	1.96633
1.2	-0.0270916	0.14419	0.193289	0.880845	1.00763	-0.309753	0.302463	-0.229241	-0.0541112	2.39389	-0.234775	-0.420645	0.089255	0.354828	0.100887	-0.43049	0.576478	0.164476	0.147356	0.0888856	-0.382276	-0.187456	-0.170188	-0.633856	-0.220031	0.174129	1.49157	-0.489158	-0.304445	0.0241927	1.97836
1.205	-0.024725	0.147157	0.202108	0.879418	1.00508	-0.311011	0.358695	-0.239576	-0.0359445	2.43099	-0.207548	-0.403032	0.0893682	0.329886	0.105325	-0.390348	0.608639	0.235928	0.112721	0.0889258	-0.391105	-0.185274	-0.207048	-0.648988	-0.224573	0.170567	1.46235	-0.454527	-0.302066	0.0214803	1.99652
1.21	-0.0231268	0.147046	0.210253	0.877965	1.00251	-0.312096	0.418168	-0.245698	-0.0176449	2.46004	-0.181239	-0.383889	0.0894815	0.303914	0.105341	-0.355087	0.635967	0.295614	0.08274	0.0889661	-0.397912	-0.179609	-0.243132	-0.666059	-0.231386	0.166849	1.44079	-0.422619	-0.298468	0.0151848	2.02067
1.215	-0.022025	0.143728	0.217131	0.876606	1.00003	-0.312964	0.480071	-0.24693	-0.000228483	2.4805	-0.156686	-0.364986	0.0895947	0.275998	0.100211	-0.325351	0.657525	0.3436	0.0597406	0.0890064	-0.402507	-0.170599	-0.277387	-0.685395	-0.240097	0.162692	1.42689	-0.393541	-0.294066	0.00581675	2.05043
1.22	-0.0212288	0.137245	0.22208	0.875464	0.997721	-0.31358	0.543633	-0.242821	0.0154418	2.4921	-0.134743	-0.348401	0.0897078	0.245399	0.089598	-0.301586	0.672612	0.380519	0.0451224	0.0890466	-0.404679	-0.158619	-0.308703	-0.707303	-0.250283	0.157794	1.42037	-0.367236	-0.289366	-0.0059263	2.08528
1.225	-0.0206763	0.127844	0.224486	0.874645	0.995622	-0.313921	0.608166	-0.233257	0.0287337	2.49489	-0.116202	-0.336297	0.0898209	0.211611	0.0736626	-0.284133	0.680724	0.407099	0.0393817	0.0890869	-0.40423	-0.144229	-0.33608	-0.732036	-0.261529	0.151876	1.42075	-0.343514	-0.284876	-0.0192508	2.12457
1.23	-0.0204424	0.115946	0.223892	0.874227	0.993761	-0.313982	0.673067	-0.218521	0.0392849	2.48916	-0.101706	-0.330638	0.089934	0.174358	0.0531072	-0.273284	0.68152	0.423807	0.0422478	0.0891272	-0.401026	-0.128104	-0.358784	-0.759766	-0.273479	0.144734	1.42741	-0.322107	-0.281033	-0.0333716	2.16764
1.235	-0.0206841	0.102125	0.220054	0.874257	0.992142	-0.313767	0.737792	-0.19928	0.0470192	2.4754	-0.0916731	-0.332913	0.0900471	0.133594	0.0291085	-0.269328	0.674816	0.430646	0.0528554	0.0891676	-0.395037	-0.110965	-0.376441	-0.790565	-0.285863	0.136272	1.43962	-0.302735	-0.278142	-0.0476125	2.21378
1.24	-0.0216067	0.0870729	0.212941	0.874749	0.990768	-0.313292	0.801833	-0.176518	0.0521345	2.45421	-0.0862581	-0.343968	0.0901601	0.0894975	0.00317584	-0.272559	0.660612	0.427135	0.0699001	0.0892079	-0.386351	-0.0935169	-0.389039	-0.824398	-0.298492	0.126512	1.45667	-0.285167	-0.276354	-0.0614729	2.26229
1.245	-0.0234423	0.0715367	0.202711	0.875675	0.989642	-0.312585	0.864726	-0.151418	0.0550347	2.42623	-0.0853222	-0.36393	0.090273	0.04251	-0.0230312	-0.283174	0.63916	0.412415	0.0917234	0.0892482	-0.375141	-0.0763985	-0.396885	-0.861131	-0.311236	0.115583	1.47783	-0.269264	-0.275679	-0.0746397	2.31242
1.25	-0.0264389	0.0562348	0.189712	0.876972	0.988766	-0.311683	0.926051	-0.125255	0.0562147	2.39208	-0.0884205	-0.392194	0.090386	-0.00661317	-0.0478987	-0.301113	0.611048	0.385489	0.116342	0.0892886	-0.36162	-0.0601261	-0.400542	-0.900545	-0.323979	0.10369	1.50243	-0.254983	-0.276016	-0.0869499	2.36332
1.255	-0.0308441	0.0417899	0.174466	0.878553	0.988138	-0.310638	0.98543	-0.0992927	0.0561529	2.35233	-0.0948106	-0.42747	0.0904989	-0.0567856	-0.070029	-0.325873	0.577272	0.345526	0.141434	0.0893289	-0.346009	-0.0450549	-0.400762	-0.942339	-0.336576	0.0910798	1.5298	-0.24237	-0.277189	-0.0983247	2.41401
1.26	-0.0368696	0.0286857	0.157631	0.880312	0.987756	-0.309507	1.04249	-0.074678	0.0552488	2.3074	-0.103508	-0.467897	0.0906118	-0.106645	-0.0883746	-0.356403	0.539247	0.292185	0.164385	0.0893693	-0.328539	-0.0313701	-0.398381	-0.986118	-0.348813	0.0780192	1.55932	-0.231519	-0.27899	-0.10869	2.46332
1.265	-0.0446368	0.0172561	0.139926	0.882135	0.987614	-0.308353	1.09682	-0.0523483	0.053814	2.25763	-0.11339	-0.511189	0.0907246	-0.154683	-0.102318	-0.391118	0.498769	0.225941	0.182466	0.0894096	-0.309498	-0.019109	-0.394211	-1.03137	-0.360378	0.0647806	1.59034	-0.222515	-0.281222	-0.117908	2.50998
1.27	-0.0541229	0.00770096	0.122065	0.883901	0.987704	-0.307241	1.14789	-0.0329725	0.0520974	2.2032	-0.123341	-0.554796	0.0908374	-0.199423	-0.111695	-0.428003	0.457933	0.148328	0.193149	0.08945	-0.289286	-0.00820463	-0.388938	-1.07746	-0.370859	0.0516425	1.6222	-0.215379	-0.283722	-0.125737	2.55259
1.275	-0.0651337	0.000116436	0.104693	0.885496	0.988019	-0.306243	1.19504	-0.0169232	0.0503252	2.14415	-0.132402	-0.596078	0.0909501	-0.23957	-0.11676	-0.464798	0.419033	0.0620681	0.194489	0.0894904	-0.268444	0.00145287	-0.383058	-1.12359	-0.379758	0.0389023	1.65416	-0.210031	-0.286384	-0.131833	2.58989
1.28	-0.0773185	-0.00546106	0.0883462	0.886821	0.988547	-0.305427	1.23748	-0.00429371	0.0487426	2.08048	-0.139928	-0.632516	0.0910629	-0.274105	-0.118085	-0.499152	0.384465	-0.0289996	0.185434	0.0895308	-0.247629	0.00995125	-0.376859	-1.16887	-0.386539	0.0268905	1.68546	-0.206287	-0.289158	-0.1358	2.62088
1.285	-0.0902288	-0.00902272	0.0734436	0.887795	0.989278	-0.304856	1.27436	0.00503986	0.047631	2.01207	-0.145701	-0.661944	0.0911755	-0.302317	-0.116429	-0.528764	0.356616	-0.120221	0.165984	0.0895712	-0.227567	0.0173094	-0.370456	-1.21228	-0.390695	0.0159784	1.71532	-0.203895	-0.292037	-0.137257	2.64508
